<?xml version="1.0" standalone="no"?>
<!DOCTYPE svg PUBLIC "-//W3C//DTD SVG 20010904//EN"
 "http://www.w3.org/TR/2001/REC-SVG-20010904/DTD/svg10.dtd">
<svg version="1.0" xmlns="http://www.w3.org/2000/svg"
 width="512.000000pt" height="512.000000pt" viewBox="0 0 512.000000 512.000000"
 preserveAspectRatio="xMidYMid meet">

<g transform="translate(0.000000,512.000000) scale(0.100000,-0.100000)"
fill="red" stroke="none">
<path d="M0 2560 l0 -2560 2560 0 2560 0 0 2560 0 2560 -2560 0 -2560 0 0
-2560z m2955 2371 c495 -88 920 -304 1274 -646 380 -368 620 -832 708 -1370
13 -84 18 -167 18 -350 0 -269 -12 -372 -69 -599 -210 -828 -862 -1494 -1687
-1720 -234 -64 -363 -80 -639 -80 -208 0 -265 3 -375 22 -158 27 -328 72 -455
119 -113 42 -310 133 -310 143 0 4 62 45 138 90 1400 849 2299 1564 2651 2110
137 212 183 413 131 564 -178 520 -1329 725 -3370 601 -140 -9 -304 -20 -364
-25 -61 -5 -111 -8 -113 -7 -6 6 140 213 212 302 365 448 918 764 1485 849
163 24 161 24 410 21 186 -2 260 -7 355 -24z m-2370 -1627 c904 -82 1482 -296
1677 -620 44 -72 65 -134 78 -225 52 -369 -352 -896 -1267 -1652 l-82 -68 -95
91 c-317 304 -554 710 -662 1136 -57 227 -69 330 -69 599 1 284 18 420 87 658
l31 108 66 -6 c36 -3 143 -12 236 -21z"/>
</g>
</svg>
